<svg width="43" height="43" viewBox="0 0 43 43" fill="none" xmlns="http://www.w3.org/2000/svg">
<circle cx="21.5" cy="21.5" r="21.5" fill="white"/>
<path d="M34.0008 22.0006C34.0008 22.2658 33.8954 22.5201 33.7079 22.7077C33.5204 22.8952 33.266 23.0006 33.0008 23.0006H13.4145L20.7083 30.2931C20.8012 30.386 20.8749 30.4963 20.9252 30.6177C20.9755 30.7391 21.0013 30.8692 21.0013 31.0006C21.0013 31.132 20.9755 31.2621 20.9252 31.3835C20.8749 31.5048 20.8012 31.6151 20.7083 31.7081C20.6154 31.801 20.5051 31.8747 20.3837 31.9249C20.2623 31.9752 20.1322 32.0011 20.0008 32.0011C19.8694 32.0011 19.7393 31.9752 19.6179 31.9249C19.4965 31.8747 19.3862 31.801 19.2933 31.7081L10.2933 22.7081C10.2003 22.6152 10.1266 22.5049 10.0762 22.3835C10.0259 22.2621 10 22.132 10 22.0006C10 21.8691 10.0259 21.739 10.0762 21.6176C10.1266 21.4962 10.2003 21.3859 10.2933 21.2931L19.2933 12.2931C19.4809 12.1054 19.7354 12 20.0008 12C20.2662 12 20.5206 12.1054 20.7083 12.2931C20.8959 12.4807 21.0013 12.7352 21.0013 13.0006C21.0013 13.2659 20.8959 13.5204 20.7083 13.7081L13.4145 21.0006H33.0008C33.266 21.0006 33.5204 21.1059 33.7079 21.2934C33.8954 21.481 34.0008 21.7353 34.0008 22.0006Z" fill="#1F1F1F" fill-opacity="0.75"/>
</svg>
