<svg width="43" height="43" viewBox="0 0 43 43" fill="none" xmlns="http://www.w3.org/2000/svg">
<circle cx="21.5" cy="21.5" r="21.5" fill="white"/>
<path d="M34.9073 18.4095C34.7949 18.0638 34.583 17.7588 34.298 17.5324C34.0131 17.3059 33.6676 17.1682 33.3047 17.1362L26.4127 16.5435L23.7112 10.1353C23.5705 9.79907 23.3333 9.51185 23.0293 9.30983C22.7253 9.1078 22.3682 9 22.003 9C21.6377 9 21.2806 9.1078 20.9767 9.30983C20.6727 9.51185 20.4354 9.79907 20.2948 10.1353L17.6014 16.5435L10.7013 17.1396C10.3369 17.1702 9.98972 17.3073 9.70322 17.5339C9.41671 17.7605 9.20365 18.0664 9.09074 18.4133C8.97784 18.7602 8.97012 19.1326 9.06856 19.4838C9.167 19.8351 9.36721 20.1495 9.64408 20.3877L14.8789 24.9507L13.31 31.727C13.227 32.0816 13.2507 32.4528 13.378 32.794C13.5054 33.1353 13.7308 33.4315 14.026 33.6457C14.3212 33.8599 14.6732 33.9825 15.0379 33.9983C15.4026 34.014 15.7639 33.9222 16.0765 33.7342L21.9949 30.1458L27.926 33.7342C28.2386 33.9222 28.5999 34.014 28.9646 33.9983C29.3293 33.9825 29.6813 33.8599 29.9765 33.6457C30.2717 33.4315 30.4971 33.1353 30.6245 32.794C30.7518 32.4528 30.7755 32.0816 30.6925 31.727L29.1247 24.9438L34.3584 20.3877C34.6352 20.1487 34.8351 19.8334 34.9327 19.4814C35.0304 19.1294 35.0215 18.7564 34.9073 18.4095ZM33.1411 18.9882L27.9074 23.5443C27.6527 23.7653 27.4632 24.0515 27.3593 24.3719C27.2555 24.6923 27.2411 25.0349 27.3179 25.3628L28.8903 32.1507L22.9638 28.5623C22.6747 28.3867 22.3427 28.2937 22.0041 28.2937C21.6656 28.2937 21.3336 28.3867 21.0444 28.5623L15.1261 32.1507L16.6881 25.3675C16.7648 25.0395 16.7505 24.6969 16.6466 24.3765C16.5428 24.0561 16.3533 23.77 16.0986 23.549L10.8626 18.9952C10.8621 18.9917 10.8621 18.9882 10.8626 18.9848L17.7603 18.3898C18.0971 18.3602 18.4194 18.2394 18.6924 18.0405C18.9654 17.8416 19.1788 17.5722 19.3096 17.2612L22.003 10.8611L24.6953 17.2612C24.826 17.5722 25.0394 17.8416 25.3124 18.0405C25.5854 18.2394 25.9077 18.3602 26.2445 18.3898L33.1434 18.9848V18.9929L33.1411 18.9882Z" fill="#FFC107"/>
</svg>
