<svg width="25" height="25" viewBox="0 0 25 25" fill="none" xmlns="http://www.w3.org/2000/svg">
<path d="M24.8012 22.98C22.9939 19.8856 20.2089 17.6668 16.9587 16.6149C18.5664 15.667 19.8155 14.2227 20.5141 12.5037C21.2127 10.7847 21.3223 8.88608 20.826 7.09943C20.3297 5.31278 19.2549 3.73688 17.7668 2.61374C16.2786 1.4906 14.4593 0.882324 12.5883 0.882324C10.7173 0.882324 8.898 1.4906 7.40984 2.61374C5.92167 3.73688 4.8469 5.31278 4.35058 7.09943C3.85427 8.88608 3.96384 10.7847 4.66249 12.5037C5.36113 14.2227 6.61021 15.667 8.21791 16.6149C4.96771 17.6656 2.18267 19.8844 0.375418 22.98C0.309143 23.087 0.265183 23.2061 0.246132 23.3303C0.227082 23.4544 0.233326 23.581 0.264496 23.7027C0.295667 23.8244 0.351132 23.9387 0.42762 24.0388C0.504108 24.1389 0.600069 24.2229 0.709842 24.2857C0.819614 24.3485 0.940975 24.3889 1.06676 24.4045C1.19255 24.42 1.32022 24.4105 1.44223 24.3765C1.56424 24.3424 1.67813 24.2845 1.77718 24.2061C1.87622 24.1278 1.95842 24.0305 2.01891 23.9202C4.25454 20.0936 8.20604 17.809 12.5883 17.809C16.9705 17.809 20.922 20.0936 23.1577 23.9202C23.2182 24.0305 23.3004 24.1278 23.3994 24.2061C23.4985 24.2845 23.6123 24.3424 23.7344 24.3765C23.8564 24.4105 23.984 24.42 24.1098 24.4045C24.2356 24.3889 24.357 24.3485 24.4667 24.2857C24.5765 24.2229 24.6725 24.1389 24.749 24.0388C24.8255 23.9387 24.8809 23.8244 24.9121 23.7027C24.9433 23.581 24.9495 23.4544 24.9305 23.3303C24.9114 23.2061 24.8674 23.087 24.8012 22.98ZM5.94312 9.34724C5.94312 8.04558 6.33285 6.77314 7.06304 5.69085C7.79322 4.60855 8.83105 3.765 10.0453 3.26688C11.2595 2.76875 12.5957 2.63842 13.8847 2.89236C15.1737 3.1463 16.3578 3.77312 17.2871 4.69353C18.2165 5.61395 18.8494 6.78663 19.1058 8.06329C19.3622 9.33994 19.2306 10.6632 18.7276 11.8658C18.2247 13.0684 17.3729 14.0963 16.2802 14.8194C15.1874 15.5426 13.9026 15.9286 12.5883 15.9286C10.8265 15.9267 9.13733 15.2327 7.89153 13.9989C6.64573 12.7651 5.94501 11.0921 5.94312 9.34724Z" fill="black"/>
</svg>
