<svg width="100" height="100" viewBox="0 0 100 100" fill="none" xmlns="http://www.w3.org/2000/svg">
<circle cx="50" cy="50" r="50" fill="#DFF5FF"/>
<path d="M80.4145 72.2442C75.8964 64.5082 68.9338 58.9611 60.8083 56.3315C64.8276 53.9618 67.9503 50.3509 69.6969 46.0534C71.4435 41.7559 71.7174 37.0094 70.4766 32.5428C69.2358 28.0761 66.5489 24.1364 62.8285 21.3285C59.1081 18.5207 54.5599 17 49.8824 17C45.2048 17 40.6566 18.5207 36.9362 21.3285C33.2158 24.1364 30.5289 28.0761 29.2881 32.5428C28.0473 37.0094 28.3212 41.7559 30.0678 46.0534C31.8145 50.3509 34.9371 53.9618 38.9564 56.3315C30.8309 58.9581 23.8683 64.5053 19.3502 72.2442C19.1845 72.5118 19.0746 72.8095 19.027 73.1198C18.9793 73.4301 18.9949 73.7468 19.0729 74.051C19.1508 74.3552 19.2895 74.6409 19.4807 74.8913C19.6719 75.1416 19.9118 75.3514 20.1862 75.5084C20.4607 75.6654 20.7641 75.7663 21.0785 75.8053C21.393 75.8443 21.7122 75.8205 22.0172 75.7354C22.3222 75.6502 22.607 75.5054 22.8546 75.3095C23.1022 75.1136 23.3077 74.8705 23.4589 74.5947C29.048 65.0283 38.9267 59.3166 49.8824 59.3166C60.838 59.3166 70.7167 65.0283 76.3058 74.5947C76.457 74.8705 76.6625 75.1136 76.9101 75.3095C77.1578 75.5054 77.4425 75.6502 77.7475 75.7354C78.0525 75.8205 78.3717 75.8443 78.6862 75.8053C79.0006 75.7663 79.3041 75.6654 79.5785 75.5084C79.8529 75.3514 80.0928 75.1416 80.284 74.8913C80.4753 74.6409 80.6139 74.3552 80.6918 74.051C80.7698 73.7468 80.7854 73.4301 80.7378 73.1198C80.6901 72.8095 80.5802 72.5118 80.4145 72.2442ZM33.2694 38.1623C33.2694 34.9081 34.2438 31.727 36.0692 29.0213C37.8947 26.3156 40.4892 24.2067 43.5249 22.9614C46.5605 21.7161 49.9008 21.3902 53.1234 22.0251C56.346 22.66 59.3061 24.227 61.6295 26.528C63.9528 28.8291 65.5351 31.7608 66.1761 34.9524C66.8171 38.144 66.4881 41.4523 65.2307 44.4587C63.9733 47.4652 61.844 50.0348 59.112 51.8428C56.38 53.6507 53.1681 54.6156 49.8824 54.6156C45.4778 54.611 41.255 52.876 38.1404 49.7914C35.0259 46.7068 33.2741 42.5246 33.2694 38.1623Z" fill="black"/>
</svg>
